<svg id="Capa_1" data-name="Capa 1" xmlns="http://www.w3.org/2000/svg" viewBox="0 0 214.39 163.85"><path d="M195.69,43.48c-4.4-2.4-15.6-9.5-25-15.8-26.9-18.2-30.2-19.2-61-19.1-11,.1-22.1.5-24.7.9-9.7,1.7-15.4,4.5-34.6,17.4-10.9,7.2-22.8,14.7-26.5,16.6-7.9,4.1-15.2,9.8-18.7,14.7C1.39,63.48,2,67.38,8,79c13.5,25.6,16.5,32.6,17.2,39.4.7,7.5,2.2,10.5,6.3,12.2,2.3,1,3.5.9,6.7-.6,7.3-3.3,11-9.6,11-19,0-3,.4-5.5.8-5.5s1.7,1.8,2.7,4.1,4,7.5,6.6,11.6c5.3,8.4,6.4,12.9,7.5,31.3.7,12.9,1.9,15.9,7.1,18.4,6.1,2.9,14.1,1.6,19.5-3.1,1.5-1.4,2.2-1.3,6.3.7,3.8,1.9,5.8,2.2,10.9,1.8a36.6,36.6,0,0,0,9.8-2.2c3.5-1.7,3.6-1.7,8.4,1.3,8,5.1,18.8,3.6,22.2-3.1.6-1.3,1.6-8.8,2.2-16.8,1.1-16.6,2.1-20.8,6-26.5a109,109,0,0,0,5.8-10.2,47,47,0,0,1,4-6.7c.5-.3,1.2,2.6,1.5,6.5.7,8.5,3.2,12.9,9.1,16.4,5.6,3.3,8.2,3.2,11.7-.6,2.4-2.6,2.9-4,2.9-8,0-5.5,3.4-15.4,8.4-24.4,8.5-15.1,14.6-27.8,14.6-30.2C217.19,59,209.39,50.88,195.69,43.48Zm-149,45.3c-.2,13.7-.9,26.6-1.5,28.7-1.4,5.1-4.4,8.6-8.6,10-5,1.7-6.9-.3-7.8-8.1-.7-7.1-5-17.6-14-33.9s-10-19.2-8.2-23.3c2.1-5,8.8-10.9,17.8-15.7s37.2-23.1,38.2-24.9c.7-1.1,3.6-1.6,3.6-.6s-6.8,13.7-12.4,23.4C47.29,55.48,47.39,54.78,46.69,88.78Zm70.8,77.4c-5,2-15.6,1.4-18.1-1.1-1.6-1.7-1.5-2,3.3-6.2,2.8-2.4,5.6-4.4,6.4-4.4s3.8,1.9,6.8,4.1,5.3,4.6,5.3,5.1S119.49,165.28,117.49,166.18Zm47.2-58.6c-3.2,5.7-7.1,12.2-8.5,14.4a35.31,35.31,0,0,0-3.8,7.5c-1.5,4.5-3.2,19.7-3.2,28.2,0,6.2-.2,6.8-3.1,9.2a10.16,10.16,0,0,1-7,2.6c-5,0-8.4-1.7-16.2-8.3-9.7-8.2-11.8-9.7-13.7-9.7-.9,0-5.6,3.4-10.4,7.5-10.5,9-13.2,10.5-18.6,10.5-3.2,0-4.8-.6-6.9-2.8-2.7-2.6-2.8-3.2-3.4-16.2-.9-17.3-1.7-20.8-7.6-30.5-2.7-4.4-6.5-11.1-8.6-14.9l-3.8-6.9.2-20.6c.2-14.4.6-21.5,1.6-23.7.7-1.8,4.3-8.3,8-14.5,7.4-12.5,8.7-15.3,8.9-18.9.1-2.1,1.1-2.9,5.8-4.7,8.4-3.4,14.2-4.1,35.5-4.2,13.5-.1,21.3.3,26.2,1.4,10.1,2.1,14.6,4.4,14.7,7.5.1,2.9,2.8,8.4,9.5,19.7,8.8,14.5,8.8,14.6,9.5,37l.7,20Zm32.8-8.1c-3.6,6.4-6.3,15-6.3,20s-2.3,9-5.1,9-8-3.5-9.8-6.4c-2.5-4.1-2.9-9.2-3.7-40.1-.4-17-1.1-27-1.9-29a84.45,84.45,0,0,0-5.4-9.9c-4.4-7.1-12.1-21.2-12.1-22.1,0-1.4,2.8.1,11.8,6.4,5.4,3.9,14.8,9.9,20.8,13.5,21.1,12.5,22.3,13.4,25.4,18.3,1.7,2.6,3,5.5,3,6.5C214.19,67.28,204.09,87.78,197.49,99.48ZM100.29,81c-4,9.1-17.6,32.5-18.8,32.5-2.1,0-1.6-1.4,4.3-11.6,3.1-5.3,7.5-13.6,9.8-18.3,3.9-8.2,4.1-9,4.1-18.1,0-12.2-2.1-17.3-7.4-17.8-3.9-.4-16.8,3.4-26.6,7.8-7.8,3.5-7.5,3.4-7.5,1.5,0-1.7,6.1-4.5,19.5-9,13.1-4.4,16.7-4.5,20.5-.3a21.33,21.33,0,0,1,4.1,8.1C104,62.78,103,74.88,100.29,81Zm60.9-23.8c0,.8-.6,1.3-1.2,1s-5-2.2-9.6-4.1c-8.8-3.8-18.4-6.6-22.4-6.6-6.3,0-10.2,12.4-7.9,25.1,1,5.7,8.1,20.4,18.1,37.1,2.1,3.6,2.1,3.8.3,3.8S127.19,97.38,120,82c-5.5-11.9-4.9-26.9,1.4-34.1,3.9-4.4,7-4.4,20.2,0C155.49,52.58,161.19,55.28,161.19,57.18ZM84,69.78c3.8-2.8,4-6.5.6-9.2a13.75,13.75,0,0,0-3.4-2.1,13.75,13.75,0,0,0-3.4,2.1c-3.4,2.7-3.2,6.4.7,9.2l2.7,2.1Zm-4.2-2.3c-1.9-1.5-2-3.2-.4-4.8s2.8-1.1,4.2,1.1C85.19,66.28,82,69.38,79.79,67.48Zm58.9-9a9.35,9.35,0,0,0-3.9,2.1,6.47,6.47,0,0,0-2.6,4.4c0,2.4,4.1,6.5,6.5,6.5,1.9,0,6.6-6,5.9-7.3C143.19,61.78,139.79,58.48,138.69,58.48Zm-1.9,9c-1.9-1.5-2-3.2-.4-4.8s2.8-1.1,4.2,1.1C142.19,66.28,139,69.38,136.79,67.48Zm-7.6,49.4c0,3.3-6.6,14.3-11.4,19.1-5.9,6-8.3,6.7-12.7,3.7-6.7-4.4-15.7-18.9-14.5-23.5.8-3.2,5.7-5.7,12.9-6.5a54.67,54.67,0,0,1,18.8,1.3C125.09,111.88,129.19,115.38,129.19,116.88Z" transform="translate(-2.81 -8.58)"/></svg>